<?xml version="1.0" standalone="no"?>
<!DOCTYPE svg PUBLIC "-//W3C//DTD SVG 20010904//EN"
 "http://www.w3.org/TR/2001/REC-SVG-20010904/DTD/svg10.dtd">
<svg version="1.0" xmlns="http://www.w3.org/2000/svg"
 width="260.000000pt" height="260.000000pt" viewBox="0 0 260.000000 260.000000"
 preserveAspectRatio="xMidYMid meet">
<metadata>
Created by potrace 1.14, written by Peter Selinger 2001-2017
</metadata>
<g transform="translate(0.000000,260.000000) scale(0.100000,-0.100000)"
fill="#000000" stroke="none">
<path d="M0 1300 l0 -1300 1300 0 1300 0 0 1300 0 1300 -1300 0 -1300 0 0
-1300z m1790 625 l0 -115 -175 0 -175 0 0 -84 0 -84 -42 10 c-37 8 -173 6
-219 -4 -11 -2 -15 14 -17 80 l-3 82 -174 0 -175 0 0 115 0 115 490 0 490 0 0
-115z m-377 -448 l27 -17 0 -355 0 -355 -137 0 -138 0 0 343 c0 376 -2 366 60
394 41 18 154 13 188 -10z"/>
</g>
</svg>
